<svg fill="#E54560" xmlns="http://www.w3.org/2000/svg" xmlns:xlink="http://www.w3.org/1999/xlink" version="1.1" x="0px" y="0px" viewBox="0 0 245 456" enable-background="new 0 0 245 456" xml:space="preserve"><g><path fill-rule="evenodd" clip-rule="evenodd" d="M66.719,250.246c10.056-2.388,23.136-2.497,29.022-13.188   C26.282,223.888,6.417,238.711,0,257.754c0.589,0.463,6.875-0.044,7.509,0c30.626,2.168,35.485,12.341,24.826,41.42   c-4.218,11.499-9.258,22.698-13.302,34.253c-8.798,25.136,0.335,45.965,17.955,68.556c-6.321-27.848,4.358-46.745,19.517-63.973   C79.834,311.491,86.736,282.901,66.719,250.246z"></path><path d="M102.867,285.896C127.406,167.838,55.878,0,55.878,0c52.328,28.221,86.364,63.887,104.847,99.895   c28.88,56.262,8.923,148.364,8.923,148.364c26.79-52.592,12.182-109.986,15.526-105.271c3.344,4.714,30.776,26.123,38.796,58.054   c13.768,54.831-28.454,119.63-28.454,119.63c22.456-20.259,38.813-73.074,38.813-73.074s13.472,15.801,9.717,53.429   c-5.446,54.58-63.969,81.744-63.969,81.744c10.325,2.578,45.537-19.664,45.537-19.664c-7.427,19.481-20.755,38.636-30.027,45.521   c-17.246,12.811-54.652,14.804-54.652,14.804c14.884,5.012,29.916,4.239,29.916,4.239c-34.292,31.525-82.289,11.78-82.289,11.78   c11.066,10.983,16.54,14.089,19.194,14.758c-12.016,4.858-37.757-2.215-53.315-21.482c-7.562-9.364-18.773-37.628-11.264-58.324   c8.092-22.301,20.65-35.746,33.791-45.153C83.801,324.356,99.703,301.122,102.867,285.896z"></path></g></svg>